<svg width="16" height="29" viewBox="0 0 16 29" fill="none" xmlns="http://www.w3.org/2000/svg">
<g clip-path="url(#clip0_16_54)">
<path d="M7.27841 26.1818V4.36364H8.67614V26.1818H7.27841ZM10.9858 11.5653C10.9176 10.8778 10.625 10.3437 10.108 9.96307C9.59091 9.58239 8.8892 9.39204 8.00284 9.39204C7.40057 9.39204 6.89205 9.47727 6.47727 9.64773C6.0625 9.8125 5.74432 10.0426 5.52273 10.3381C5.30682 10.6335 5.19886 10.9688 5.19886 11.3438C5.1875 11.6562 5.25284 11.929 5.39489 12.1619C5.54261 12.3949 5.74432 12.5966 6 12.767C6.25568 12.9318 6.55114 13.0767 6.88636 13.2017C7.22159 13.321 7.57955 13.4233 7.96023 13.5085L9.52841 13.8835C10.2898 14.054 10.9886 14.2812 11.625 14.5653C12.2614 14.8494 12.8125 15.1989 13.2784 15.6136C13.7443 16.0284 14.1051 16.517 14.3608 17.0795C14.6222 17.642 14.7557 18.2869 14.7614 19.0142C14.7557 20.0824 14.483 21.0085 13.9432 21.7926C13.4091 22.571 12.6364 23.1761 11.625 23.608C10.6193 24.0341 9.40625 24.2472 7.9858 24.2472C6.5767 24.2472 5.34943 24.0312 4.30398 23.5994C3.2642 23.1676 2.4517 22.5284 1.86648 21.6818C1.28693 20.8295 0.982955 19.7756 0.954545 18.5199H4.52557C4.56534 19.1051 4.73295 19.5937 5.02841 19.9858C5.32955 20.3722 5.73011 20.6648 6.23011 20.8636C6.7358 21.0568 7.30682 21.1534 7.94318 21.1534C8.56818 21.1534 9.1108 21.0625 9.57102 20.8807C10.0369 20.6989 10.3977 20.446 10.6534 20.1222C10.9091 19.7983 11.0369 19.4261 11.0369 19.0057C11.0369 18.6136 10.9205 18.2841 10.6875 18.017C10.4602 17.75 10.125 17.5227 9.68182 17.3352C9.24432 17.1477 8.70739 16.9773 8.07102 16.8239L6.17045 16.3466C4.69886 15.9886 3.53693 15.429 2.68466 14.6676C1.83239 13.9062 1.40909 12.8807 1.41477 11.5909C1.40909 10.5341 1.69034 9.6108 2.25852 8.82102C2.83239 8.03125 3.61932 7.41477 4.61932 6.97159C5.61932 6.52841 6.75568 6.30682 8.02841 6.30682C9.32386 6.30682 10.4545 6.52841 11.4205 6.97159C12.392 7.41477 13.1477 8.03125 13.6875 8.82102C14.2273 9.6108 14.5057 10.5256 14.5227 11.5653H10.9858Z" fill="#02897A"/>
</g>
<defs>
<clipPath id="clip0_16_54">
<rect width="16" height="29" fill="white"/>
</clipPath>
</defs>
</svg>
